<svg width="289" height="264" viewBox="0 0 822 748" fill="none" xmlns="http://www.w3.org/2000/svg">
<g clip-path="url(#clip0_115_445)">
<rect x="-2.95629" y="-2.95629" width="827.761" height="753.854" rx="24" stroke="#009DBC" stroke-opacity="0.03" stroke-width="5.91258"/>
<g filter="url(#filter0_f_115_445)">
<rect x="7.39025" y="7.39086" width="807.067" height="733.16" rx="23" stroke="url(#paint0_radial_115_445)" stroke-width="2.95629"/>
</g>
<g clip-path="url(#clip1_115_445)">
<rect x="5.91211" y="5.91272" width="810.023" height="736.116" rx="23" fill="url(#paint1_radial_115_445)"/>
<rect x="5.91211" y="5.91272" width="810.023" height="736.116" rx="23" fill="#515151" fill-opacity="0.2"/>
<rect x="-48.5078" y="386.124" width="993.889" height="394.03" fill="url(#paint2_linear_115_445)"/>
<rect x="3.8457" y="376.104" width="455.596" height="366.617" fill="url(#paint3_linear_115_445)"/>
<g opacity="0.1">
<rect x="30.5234" y="6.08667" width="4.75872" height="28.5523" fill="#F8F8F8"/>
<rect x="91.3281" y="6.08667" width="4.75872" height="28.5523" fill="#F8F8F8"/>
<rect x="152.135" y="6.08667" width="4.75872" height="28.5523" fill="#F8F8F8"/>
<rect x="212.939" y="6.08667" width="4.75872" height="28.5523" fill="#F8F8F8"/>
<rect x="273.746" y="6.08667" width="4.75872" height="28.5523" fill="#F8F8F8"/>
<rect x="334.553" y="6.08667" width="4.75872" height="28.5523" fill="#F8F8F8"/>
<rect x="395.357" y="6.08667" width="4.75872" height="28.5523" fill="#F8F8F8"/>
<rect x="456.164" y="6.08667" width="4.75872" height="28.5523" fill="#F8F8F8"/>
<rect x="516.969" y="6.08667" width="4.75872" height="28.5523" fill="#F8F8F8"/>
<rect x="577.775" y="6.08667" width="4.75872" height="28.5523" fill="#F8F8F8"/>
<rect x="638.58" y="6.08667" width="4.75872" height="28.5523" fill="#F8F8F8"/>
<rect x="699.387" y="6.08667" width="4.75872" height="28.5523" fill="#F8F8F8"/>
<rect x="760.191" y="6.08667" width="4.75872" height="28.5523" fill="#F8F8F8"/>
</g>
<path opacity="0.1" d="M460.922 6.08667C460.922 4.77259 459.857 3.70731 458.543 3.70731C457.229 3.70731 456.164 4.77259 456.164 6.08667L458.543 6.08667L460.922 6.08667ZM458.543 6.08667L456.164 6.08667L456.164 18.7105L458.543 18.7105L460.922 18.7105L460.922 6.08667L458.543 6.08667ZM458.543 43.9581L456.164 43.9581L456.164 69.2057L458.543 69.2057L460.922 69.2057L460.922 43.9581L458.543 43.9581ZM458.543 94.4534L456.164 94.4534L456.164 119.701L458.543 119.701L460.922 119.701L460.922 94.4534L458.543 94.4534ZM458.543 144.949L456.164 144.949L456.164 170.196L458.543 170.196L460.922 170.196L460.922 144.949L458.543 144.949ZM458.543 195.444L456.164 195.444L456.164 220.692L458.543 220.692L460.922 220.692L460.922 195.444L458.543 195.444ZM458.543 245.939L456.164 245.939L456.164 271.187L458.543 271.187L460.922 271.187L460.922 245.939L458.543 245.939ZM458.543 296.434L456.164 296.434L456.164 321.682L458.543 321.682L460.922 321.682L460.922 296.434L458.543 296.434ZM458.543 346.93L456.164 346.93L456.164 372.177L458.543 372.177L460.922 372.177L460.922 346.93L458.543 346.93ZM458.543 397.425L456.164 397.425L456.164 422.673L458.543 422.673L460.922 422.673L460.922 397.425L458.543 397.425ZM458.543 447.92L456.164 447.92L456.164 473.168L458.543 473.168L460.922 473.168L460.922 447.92L458.543 447.92ZM458.543 498.415L456.164 498.415L456.164 523.663L458.543 523.663L460.922 523.663L460.922 498.415L458.543 498.415ZM458.543 548.911L456.164 548.911L456.164 574.158L458.543 574.158L460.922 574.158L460.922 548.911L458.543 548.911ZM458.543 599.406L456.164 599.406L456.164 612.03L458.543 612.03L460.922 612.03L460.922 599.406L458.543 599.406Z" fill="#F8F8F8"/>
<g opacity="0.6">
<path d="M59.8003 121.211V84.4543H62.155V121.211H59.8003ZM66.5916 96.2134C66.4576 94.9595 65.8928 93.9832 64.8973 93.2844C63.9114 92.5857 62.6288 92.2363 61.0494 92.2363C59.9391 92.2363 58.9867 92.4038 58.1922 92.7388C57.3977 93.0738 56.7899 93.5285 56.3687 94.1028C55.9476 94.6771 55.7322 95.3328 55.7226 96.0699C55.7226 96.6825 55.8614 97.2137 56.139 97.6636C56.4262 98.1135 56.8138 98.4963 57.302 98.8122C57.7902 99.1185 58.331 99.377 58.9245 99.5875C59.5179 99.7981 60.1162 99.9752 60.7192 100.119L63.4759 100.808C64.5863 101.066 65.6535 101.416 66.6777 101.856C67.7115 102.296 68.6352 102.852 69.4488 103.522C70.272 104.192 70.9229 105 71.4015 105.948C71.8801 106.896 72.1194 108.006 72.1194 109.279C72.1194 111.002 71.6791 112.519 70.7984 113.831C69.9178 115.132 68.6448 116.152 66.9792 116.889C65.3233 117.616 63.318 117.98 60.9633 117.98C58.6756 117.98 56.6894 117.626 55.0047 116.918C53.3297 116.209 52.0183 115.175 51.0707 113.816C50.1326 112.457 49.6253 110.801 49.5487 108.848H54.7894C54.866 109.873 55.1818 110.724 55.737 111.404C56.2922 112.084 57.0149 112.591 57.905 112.926C58.8048 113.261 59.8099 113.429 60.9202 113.429C62.0784 113.429 63.093 113.256 63.9641 112.912C64.8447 112.558 65.5339 112.069 66.0316 111.447C66.5294 110.815 66.783 110.078 66.7926 109.236C66.783 108.47 66.5581 107.839 66.1178 107.341C65.6775 106.833 65.0601 106.412 64.2656 106.077C63.4807 105.733 62.5618 105.426 61.5089 105.158L58.1635 104.297C55.7418 103.675 53.8274 102.732 52.4203 101.468C51.0228 100.195 50.3241 98.5059 50.3241 96.4001C50.3241 94.6676 50.7931 93.1504 51.7311 91.8486C52.6788 90.5469 53.9662 89.537 55.5934 88.8191C57.2207 88.0916 59.0632 87.7279 61.1212 87.7279C63.2079 87.7279 65.0361 88.0916 66.6059 88.8191C68.1853 89.537 69.4249 90.5373 70.3246 91.8199C71.2244 93.093 71.6886 94.5575 71.7173 96.2134H66.5916ZM87.3495 117.937C85.9424 117.927 84.5689 117.683 83.2288 117.205C81.8887 116.717 80.6827 115.927 79.6106 114.836C78.5385 113.735 77.6866 112.275 77.0549 110.456C76.4231 108.628 76.1121 106.364 76.1216 103.665C76.1216 101.148 76.3896 98.9031 76.9257 96.9313C77.4617 94.9595 78.2322 93.294 79.2373 91.9348C80.2423 90.566 81.4532 89.5227 82.8698 88.8048C84.2961 88.0869 85.8898 87.7279 87.651 87.7279C89.4984 87.7279 91.1352 88.0916 92.5614 88.8191C93.9972 89.5466 95.1554 90.5421 96.036 91.8056C96.9166 93.0595 97.4622 94.4761 97.6728 96.0555H92.4322C92.1642 94.926 91.6138 94.0262 90.781 93.3562C89.9579 92.6766 88.9145 92.3368 87.651 92.3368C85.6122 92.3368 84.0424 93.2222 82.9416 94.993C81.8504 96.7638 81.3 99.1951 81.2905 102.287H81.4915C81.9605 101.444 82.5683 100.722 83.3149 100.119C84.0615 99.5158 84.9039 99.0515 85.8419 98.7261C86.7895 98.391 87.7898 98.2235 88.8427 98.2235C90.5657 98.2235 92.1115 98.6351 93.4803 99.4583C94.8587 100.282 95.9499 101.416 96.7539 102.861C97.558 104.297 97.9552 105.943 97.9456 107.8C97.9552 109.734 97.5149 111.471 96.6247 113.012C95.7345 114.544 94.495 115.75 92.906 116.63C91.3171 117.511 89.4649 117.947 87.3495 117.937ZM87.3208 113.63C88.3641 113.63 89.2974 113.376 90.1206 112.869C90.9438 112.361 91.5947 111.677 92.0733 110.815C92.5518 109.954 92.7864 108.987 92.7768 107.915C92.7864 106.862 92.5566 105.91 92.0876 105.058C91.6282 104.206 90.9916 103.531 90.178 103.033C89.3644 102.536 88.4359 102.287 87.3926 102.287C86.6173 102.287 85.8946 102.435 85.2245 102.732C84.5545 103.029 83.9706 103.44 83.4729 103.967C82.9751 104.484 82.5827 105.087 82.2955 105.776C82.0179 106.455 81.8744 107.183 81.8648 107.958C81.8744 108.982 82.1137 109.925 82.5827 110.787C83.0517 111.648 83.6978 112.337 84.521 112.854C85.3442 113.371 86.2774 113.63 87.3208 113.63ZM103.875 117.535L116.381 92.7819V92.5809H101.865V88.1299H121.895V92.6814L109.403 117.535H103.875ZM127.634 113.515L127.448 115.094C127.314 116.3 127.074 117.525 126.73 118.77C126.395 120.024 126.04 121.177 125.667 122.23C125.294 123.283 124.992 124.111 124.763 124.714H121.259C121.393 124.13 121.575 123.336 121.805 122.33C122.044 121.325 122.274 120.196 122.494 118.942C122.714 117.688 122.863 116.415 122.939 115.123L123.04 113.515H127.634ZM132.868 112.079V107.843L145.345 88.1299H148.877V94.1603H146.723L138.324 107.47V107.7H155.74V112.079H132.868ZM146.895 117.535V110.787L146.953 108.891V88.1299H151.978V117.535H146.895ZM170.55 117.937C168.636 117.937 166.922 117.578 165.41 116.86C163.897 116.133 162.696 115.137 161.806 113.874C160.925 112.61 160.456 111.165 160.399 109.538H165.568C165.663 110.744 166.185 111.73 167.133 112.495C168.08 113.251 169.219 113.63 170.55 113.63C171.593 113.63 172.522 113.39 173.335 112.912C174.149 112.433 174.79 111.768 175.259 110.916C175.728 110.064 175.958 109.092 175.948 108.001C175.958 106.891 175.724 105.905 175.245 105.044C174.766 104.182 174.111 103.507 173.278 103.019C172.445 102.521 171.488 102.272 170.406 102.272C169.526 102.263 168.659 102.426 167.808 102.761C166.956 103.096 166.281 103.536 165.783 104.082L160.973 103.292L162.51 88.1299H179.567V92.5809H166.917L166.07 100.377H166.243C166.788 99.7359 167.559 99.2047 168.554 98.7835C169.55 98.3528 170.641 98.1374 171.828 98.1374C173.608 98.1374 175.197 98.5586 176.595 99.4009C177.992 100.234 179.093 101.382 179.897 102.847C180.701 104.311 181.103 105.986 181.103 107.872C181.103 109.815 180.653 111.548 179.753 113.07C178.863 114.582 177.624 115.774 176.035 116.645C174.455 117.506 172.627 117.937 170.55 117.937ZM185.913 117.535V113.687L196.121 103.68C197.098 102.694 197.911 101.818 198.562 101.052C199.213 100.286 199.701 99.5445 200.027 98.8266C200.352 98.1087 200.515 97.3429 200.515 96.5293C200.515 95.6008 200.304 94.8064 199.883 94.1459C199.462 93.4759 198.883 92.959 198.146 92.5952C197.409 92.2315 196.571 92.0496 195.633 92.0496C194.666 92.0496 193.819 92.2507 193.092 92.6527C192.364 93.0451 191.8 93.6051 191.398 94.3326C191.005 95.06 190.809 95.9263 190.809 96.9313H185.741C185.741 95.0648 186.167 93.4424 187.018 92.064C187.87 90.6856 189.043 89.6184 190.536 88.8622C192.039 88.106 193.762 87.7279 195.705 87.7279C197.677 87.7279 199.409 88.0964 200.903 88.8335C202.396 89.5705 203.554 90.5804 204.377 91.863C205.21 93.1456 205.626 94.6101 205.626 96.2565C205.626 97.3573 205.416 98.4389 204.995 99.5014C204.573 100.564 203.832 101.741 202.769 103.033C201.716 104.326 200.237 105.891 198.332 107.728L193.264 112.883V113.084H206.071V117.535H185.913ZM214.284 117.851C213.413 117.851 212.666 117.544 212.044 116.932C211.422 116.319 211.116 115.573 211.125 114.692C211.116 113.831 211.422 113.094 212.044 112.481C212.666 111.868 213.413 111.562 214.284 111.562C215.126 111.562 215.859 111.868 216.481 112.481C217.113 113.094 217.433 113.831 217.443 114.692C217.433 115.276 217.28 115.807 216.983 116.286C216.696 116.764 216.313 117.147 215.835 117.434C215.366 117.712 214.849 117.851 214.284 117.851ZM222.752 117.535V113.687L232.96 103.68C233.936 102.694 234.75 101.818 235.401 101.052C236.052 100.286 236.54 99.5445 236.865 98.8266C237.191 98.1087 237.354 97.3429 237.354 96.5293C237.354 95.6008 237.143 94.8064 236.722 94.1459C236.301 93.4759 235.722 92.959 234.985 92.5952C234.248 92.2315 233.41 92.0496 232.472 92.0496C231.505 92.0496 230.658 92.2507 229.931 92.6527C229.203 93.0451 228.638 93.6051 228.236 94.3326C227.844 95.06 227.648 95.9263 227.648 96.9313H222.579C222.579 95.0648 223.005 93.4424 223.857 92.064C224.709 90.6856 225.882 89.6184 227.375 88.8622C228.878 88.106 230.601 87.7279 232.544 87.7279C234.516 87.7279 236.248 88.0964 237.741 88.8335C239.235 89.5705 240.393 90.5804 241.216 91.863C242.049 93.1456 242.465 94.6101 242.465 96.2565C242.465 97.3573 242.254 98.4389 241.833 99.5014C241.412 100.564 240.67 101.741 239.608 103.033C238.555 104.326 237.076 105.891 235.171 107.728L230.103 112.883V113.084H242.91V117.535H222.752ZM258.417 117.937C256.349 117.937 254.511 117.583 252.903 116.874C251.305 116.166 250.041 115.18 249.113 113.917C248.184 112.653 247.691 111.194 247.634 109.538H253.032C253.08 110.332 253.344 111.026 253.822 111.619C254.301 112.203 254.937 112.658 255.732 112.983C256.526 113.309 257.416 113.472 258.402 113.472C259.455 113.472 260.388 113.29 261.202 112.926C262.016 112.553 262.652 112.036 263.112 111.375C263.571 110.715 263.796 109.954 263.787 109.092C263.796 108.202 263.566 107.417 263.097 106.738C262.628 106.058 261.949 105.527 261.059 105.144C260.178 104.761 259.115 104.57 257.871 104.57H255.272V100.463H257.871C258.895 100.463 259.79 100.286 260.556 99.9321C261.331 99.578 261.939 99.0802 262.379 98.4389C262.82 97.788 263.035 97.0366 263.026 96.1847C263.035 95.352 262.848 94.6293 262.466 94.0167C262.092 93.3945 261.561 92.9111 260.872 92.5665C260.192 92.2219 259.393 92.0496 258.474 92.0496C257.574 92.0496 256.742 92.2124 255.976 92.5378C255.21 92.8633 254.593 93.3275 254.124 93.9305C253.655 94.524 253.406 95.2323 253.377 96.0555H248.251C248.29 94.4091 248.763 92.9638 249.673 91.7194C250.592 90.4655 251.817 89.4892 253.348 88.7904C254.88 88.0821 256.598 87.7279 258.503 87.7279C260.465 87.7279 262.169 88.0964 263.614 88.8335C265.069 89.5609 266.194 90.5421 266.988 91.7768C267.783 93.0116 268.18 94.3756 268.18 95.8688C268.19 97.5248 267.701 98.9127 266.716 100.033C265.739 101.153 264.457 101.885 262.868 102.229V102.459C264.935 102.746 266.519 103.512 267.62 104.756C268.73 105.991 269.281 107.527 269.271 109.365C269.271 111.012 268.802 112.486 267.864 113.788C266.936 115.08 265.653 116.094 264.016 116.831C262.389 117.568 260.522 117.937 258.417 117.937ZM300.496 96.2134C300.362 94.9595 299.797 93.9832 298.802 93.2844C297.816 92.5857 296.533 92.2363 294.954 92.2363C293.844 92.2363 292.891 92.4038 292.097 92.7388C291.302 93.0738 290.694 93.5285 290.273 94.1028C289.852 94.6771 289.637 95.3328 289.627 96.0699C289.627 96.6825 289.766 97.2137 290.044 97.6636C290.331 98.1135 290.718 98.4963 291.207 98.8122C291.695 99.1185 292.236 99.377 292.829 99.5875C293.422 99.7981 294.021 99.9752 294.624 100.119L297.38 100.808C298.491 101.066 299.558 101.416 300.582 101.856C301.616 102.296 302.54 102.852 303.353 103.522C304.176 104.192 304.827 105 305.306 105.948C305.785 106.896 306.024 108.006 306.024 109.279C306.024 111.002 305.584 112.519 304.703 113.831C303.822 115.132 302.549 116.152 300.884 116.889C299.228 117.616 297.222 117.98 294.868 117.98C292.58 117.98 290.594 117.626 288.909 116.918C287.234 116.209 285.923 115.175 284.975 113.816C284.037 112.457 283.53 110.801 283.453 108.848H288.694C288.77 109.873 289.086 110.724 289.642 111.404C290.197 112.084 290.919 112.591 291.81 112.926C292.709 113.261 293.714 113.429 294.825 113.429C295.983 113.429 296.998 113.256 297.869 112.912C298.749 112.558 299.438 112.069 299.936 111.447C300.434 110.815 300.688 110.078 300.697 109.236C300.688 108.47 300.463 107.839 300.022 107.341C299.582 106.833 298.965 106.412 298.17 106.077C297.385 105.733 296.466 105.426 295.413 105.158L292.068 104.297C289.646 103.675 287.732 102.732 286.325 101.468C284.927 100.195 284.229 98.5059 284.229 96.4001C284.229 94.6676 284.698 93.1504 285.636 91.8486C286.583 90.5469 287.871 89.537 289.498 88.8191C291.125 88.0916 292.968 87.7279 295.026 87.7279C297.112 87.7279 298.941 88.0916 300.51 88.8191C302.09 89.537 303.329 90.5373 304.229 91.8199C305.129 93.093 305.593 94.5575 305.622 96.2134H300.496ZM316.889 117.98C315.492 117.98 314.233 117.731 313.113 117.233C312.003 116.726 311.122 115.979 310.471 114.994C309.83 114.008 309.509 112.792 309.509 111.347C309.509 110.102 309.739 109.073 310.198 108.26C310.658 107.446 311.285 106.795 312.079 106.307C312.874 105.819 313.769 105.45 314.764 105.201C315.769 104.943 316.808 104.756 317.88 104.642C319.172 104.508 320.22 104.388 321.024 104.283C321.828 104.168 322.412 103.995 322.776 103.766C323.149 103.526 323.336 103.158 323.336 102.66V102.574C323.336 101.492 323.015 100.655 322.374 100.061C321.733 99.4679 320.809 99.1712 319.603 99.1712C318.33 99.1712 317.32 99.4487 316.573 100.004C315.836 100.559 315.339 101.215 315.08 101.971L310.227 101.282C310.61 99.9417 311.242 98.8218 312.122 97.922C313.003 97.0127 314.08 96.3331 315.353 95.8832C316.626 95.4238 318.033 95.194 319.574 95.194C320.637 95.194 321.694 95.3185 322.747 95.5673C323.8 95.8162 324.762 96.2278 325.633 96.8021C326.504 97.3669 327.203 98.1374 327.729 99.1137C328.265 100.09 328.533 101.31 328.533 102.775V117.535H323.537V114.505H323.365C323.049 115.118 322.604 115.692 322.029 116.228C321.465 116.755 320.751 117.181 319.89 117.506C319.038 117.822 318.038 117.98 316.889 117.98ZM318.239 114.161C319.282 114.161 320.187 113.955 320.952 113.543C321.718 113.122 322.307 112.567 322.719 111.878C323.14 111.189 323.35 110.437 323.35 109.624V107.025C323.188 107.159 322.91 107.283 322.517 107.398C322.135 107.513 321.704 107.614 321.225 107.7C320.747 107.786 320.273 107.862 319.804 107.929C319.335 107.996 318.928 108.054 318.583 108.102C317.808 108.207 317.114 108.379 316.502 108.619C315.889 108.858 315.406 109.193 315.051 109.624C314.697 110.045 314.52 110.59 314.52 111.261C314.52 112.218 314.87 112.94 315.568 113.429C316.267 113.917 317.157 114.161 318.239 114.161ZM352.669 95.4812L344.815 117.535H339.072L331.218 95.4812H336.761L341.829 111.864H342.059L347.141 95.4812H352.669ZM356.266 117.535V95.4812H361.463V117.535H356.266ZM358.879 92.3512C358.056 92.3512 357.347 92.0784 356.754 91.5328C356.16 90.9776 355.864 90.3123 355.864 89.537C355.864 88.7521 356.16 88.0869 356.754 87.5413C357.347 86.9861 358.056 86.7085 358.879 86.7085C359.712 86.7085 360.42 86.9861 361.004 87.5413C361.597 88.0869 361.894 88.7521 361.894 89.537C361.894 90.3123 361.597 90.9776 361.004 91.5328C360.42 92.0784 359.712 92.3512 358.879 92.3512ZM372.006 104.613V117.535H366.808V95.4812H371.776V99.2286H372.034C372.542 97.9938 373.35 97.0127 374.461 96.2852C375.581 95.5578 376.964 95.194 378.61 95.194C380.132 95.194 381.458 95.5195 382.587 96.1704C383.726 96.8213 384.607 97.7641 385.229 98.9989C385.861 100.234 386.172 101.732 386.162 103.493V117.535H380.965V104.297C380.965 102.823 380.582 101.669 379.816 100.837C379.06 100.004 378.012 99.5875 376.672 99.5875C375.763 99.5875 374.954 99.7886 374.245 100.191C373.547 100.583 372.996 101.153 372.594 101.899C372.202 102.646 372.006 103.55 372.006 104.613ZM401.037 126.265C399.171 126.265 397.567 126.011 396.227 125.504C394.887 125.006 393.81 124.336 392.997 123.493C392.183 122.651 391.618 121.718 391.303 120.694L395.983 119.559C396.194 119.99 396.5 120.416 396.902 120.837C397.304 121.268 397.845 121.622 398.525 121.9C399.214 122.187 400.08 122.33 401.123 122.33C402.597 122.33 403.818 121.972 404.785 121.254C405.751 120.545 406.235 119.378 406.235 117.75V113.572H405.976C405.708 114.108 405.316 114.659 404.799 115.223C404.292 115.788 403.617 116.262 402.775 116.645C401.942 117.028 400.894 117.219 399.63 117.219C397.936 117.219 396.4 116.822 395.021 116.027C393.653 115.223 392.561 114.027 391.748 112.438C390.944 110.839 390.542 108.839 390.542 106.436C390.542 104.015 390.944 101.971 391.748 100.305C392.561 98.6303 393.657 97.3621 395.036 96.5006C396.414 95.6295 397.95 95.194 399.645 95.194C400.937 95.194 401.999 95.4142 402.832 95.8545C403.674 96.2852 404.344 96.8069 404.842 97.4195C405.34 98.0225 405.718 98.5921 405.976 99.1281H406.264V95.4812H411.389V117.894C411.389 119.78 410.939 121.34 410.04 122.575C409.14 123.809 407.91 124.733 406.35 125.346C404.789 125.958 403.019 126.265 401.037 126.265ZM401.08 113.141C402.181 113.141 403.119 112.873 403.894 112.337C404.67 111.801 405.258 111.031 405.66 110.026C406.063 109.021 406.264 107.815 406.264 106.408C406.264 105.02 406.063 103.804 405.66 102.761C405.268 101.717 404.684 100.908 403.909 100.334C403.143 99.7503 402.2 99.4583 401.08 99.4583C399.922 99.4583 398.955 99.7598 398.18 100.363C397.405 100.966 396.821 101.794 396.428 102.847C396.036 103.89 395.84 105.077 395.84 106.408C395.84 107.757 396.036 108.939 396.428 109.954C396.83 110.959 397.419 111.744 398.194 112.309C398.979 112.864 399.941 113.141 401.08 113.141ZM434.147 101.31L429.408 101.827C429.274 101.349 429.04 100.899 428.705 100.478C428.379 100.057 427.939 99.7168 427.384 99.4583C426.829 99.1999 426.149 99.0707 425.345 99.0707C424.264 99.0707 423.354 99.3052 422.617 99.7742C421.89 100.243 421.531 100.851 421.54 101.598C421.531 102.239 421.765 102.761 422.244 103.163C422.732 103.565 423.536 103.895 424.656 104.153L428.418 104.957C430.504 105.407 432.055 106.12 433.07 107.097C434.094 108.073 434.611 109.351 434.62 110.93C434.611 112.318 434.204 113.543 433.4 114.606C432.605 115.659 431.5 116.482 430.083 117.075C428.667 117.669 427.039 117.966 425.202 117.966C422.502 117.966 420.329 117.401 418.683 116.271C417.037 115.132 416.056 113.548 415.74 111.519L420.808 111.031C421.038 112.026 421.526 112.778 422.273 113.285C423.019 113.792 423.991 114.046 425.187 114.046C426.422 114.046 427.413 113.792 428.159 113.285C428.915 112.778 429.294 112.151 429.294 111.404C429.294 110.772 429.05 110.251 428.561 109.839C428.083 109.427 427.336 109.112 426.322 108.891L422.56 108.102C420.444 107.661 418.879 106.92 417.865 105.876C416.85 104.823 416.348 103.493 416.357 101.885C416.348 100.526 416.716 99.3482 417.463 98.3528C418.219 97.3477 419.267 96.5724 420.607 96.0268C421.957 95.4716 423.512 95.194 425.273 95.194C427.858 95.194 429.892 95.7444 431.375 96.8452C432.869 97.946 433.792 99.4344 434.147 101.31Z" fill="#E6EEF2"/>
</g>
<path opacity="0.3" d="M476.686 5.91266H440.4L452.735 32.1017C455.049 37.0143 462.038 37.0143 464.352 32.1017L476.686 5.91266Z" fill="#009DBC"/>
<path d="M-21.6768 653.97C-22.586 654.01 -23.2911 654.779 -23.2517 655.688C-23.2122 656.597 -22.4433 657.302 -21.5341 657.263L-21.6055 655.616L-21.6768 653.97ZM57.3848 493.067L55.8505 492.466L55.8505 492.466L57.3848 493.067ZM223.196 457.258L224.251 458.524L223.196 457.258ZM297.282 410.51L297.52 412.14L297.282 410.51ZM362.984 465.311L364.115 466.51L364.115 466.51L362.984 465.311ZM-21.6055 655.616L-21.5341 657.263C-20.1224 657.201 -18.7922 656.284 -17.6515 655.236C-16.44 654.122 -15.1252 652.556 -13.7315 650.648C-10.9378 646.823 -7.67345 641.406 -4.11202 634.897C3.01826 621.866 11.4429 604.266 19.8167 585.801C36.5682 548.863 53.1751 508.335 58.919 493.667L57.3848 493.067L55.8505 492.466C50.1244 507.088 33.5398 547.562 16.8155 584.44C8.4514 602.883 0.0671175 620.394 -7.00301 633.316C-10.5418 639.783 -13.7255 645.053 -16.3927 648.705C-17.7296 650.535 -18.8984 651.905 -19.882 652.81C-20.9364 653.779 -21.5127 653.963 -21.6768 653.97L-21.6055 655.616ZM57.3848 493.067L58.919 493.667C65.4441 477.005 79.2229 456.33 93.5685 445.163C100.761 439.564 107.814 436.573 114.009 437.286C120.052 437.982 125.841 442.289 130.402 452.656L131.91 451.993L133.419 451.329C128.585 440.344 122.013 434.891 114.386 434.012C106.909 433.151 98.9833 436.771 91.5443 442.562C76.6274 454.174 62.5379 475.388 55.8505 492.466L57.3848 493.067ZM131.91 451.993L130.402 452.656C139.9 474.244 152.148 485.423 168.065 486.01C183.711 486.587 202.257 476.846 224.251 458.524L223.196 457.258L222.142 455.992C200.207 474.264 182.504 483.244 168.187 482.717C154.14 482.199 142.71 472.448 133.419 451.329L131.91 451.993ZM223.196 457.258L224.251 458.524C237.032 447.877 250.245 437.009 262.871 428.418C275.538 419.8 287.411 413.62 297.52 412.14L297.282 410.51L297.043 408.879C286.151 410.473 273.756 417.027 261.017 425.693C248.239 434.388 234.909 445.357 222.142 455.992L223.196 457.258ZM297.282 410.51L297.52 412.14C305.902 410.913 312.492 414.736 318.191 421.242C323.935 427.798 328.556 436.842 332.931 445.552C335.101 449.871 337.213 454.11 339.346 457.821C341.472 461.522 343.681 464.809 346.081 467.188C348.488 469.573 351.241 471.192 354.428 471.205C357.604 471.218 360.806 469.633 364.115 466.51L362.984 465.311L361.853 464.113C358.87 466.929 356.443 467.918 354.441 467.91C352.45 467.902 350.478 466.905 348.401 464.847C346.318 462.784 344.286 459.803 342.203 456.179C340.127 452.566 338.061 448.423 335.876 444.073C331.542 435.444 326.741 426 320.67 419.07C314.556 412.09 306.94 407.431 297.043 408.879L297.282 410.51ZM362.984 465.311L364.115 466.51C367.905 462.933 372.311 456.741 377.55 449.385C382.837 441.962 389.074 433.198 396.618 424.235C411.706 406.31 431.951 387.684 459.997 377.655L459.442 376.104L458.887 374.552C430.081 384.853 409.383 403.953 394.097 422.112C386.455 431.191 380.147 440.058 374.866 447.474C369.536 454.957 365.349 460.814 361.853 464.113L362.984 465.311Z" fill="#009DBC"/>
<line x1="458.825" y1="376.834" x2="458.825" y2="606.298" stroke="url(#paint4_linear_115_445)" stroke-width="2.19697" stroke-linecap="round"/>
<g filter="url(#filter1_d_115_445)">
<ellipse cx="458.435" cy="375.736" rx="11.0302" ry="10.3774" fill="#009DBC" shape-rendering="crispEdges"/>
<path d="M458.435 362.148C466.112 362.148 472.675 368.05 472.675 375.735C472.675 383.421 466.112 389.323 458.435 389.323C450.757 389.323 444.194 383.421 444.194 375.735C444.195 368.05 450.757 362.148 458.435 362.148Z" stroke="#009DBC" stroke-opacity="0.12" stroke-width="6.42009" shape-rendering="crispEdges"/>
</g>
<g filter="url(#filter2_f_115_445)">
<ellipse cx="458.435" cy="375.736" rx="11.0302" ry="10.3774" fill="#009DBC"/>
</g>
<g filter="url(#filter3_d_115_445)">
<path d="M458.435 358.938C467.697 358.938 475.884 366.095 475.885 375.735C475.885 385.376 467.698 392.533 458.435 392.533C449.172 392.533 440.984 385.376 440.984 375.735C440.985 366.095 449.172 358.938 458.435 358.938Z" stroke="#009DBC" stroke-opacity="0.04" stroke-width="12.8402" shape-rendering="crispEdges"/>
</g>
</g>
<rect x="7.39025" y="7.39086" width="807.067" height="733.16" rx="23" stroke="url(#paint5_radial_115_445)" stroke-width="2.95629"/>
<rect x="7.39025" y="7.39086" width="807.067" height="733.16" rx="23" stroke="white" stroke-opacity="0.06" stroke-width="2.95629"/>
<rect x="7.39025" y="7.39086" width="807.067" height="733.16" rx="23" stroke="url(#shinyBorderGradient)" stroke-width="2.95629" fill="none"/>
</g>
<defs>
<linearGradient id="shinyBorderGradient" x1="0%" y1="0%" x2="100%" y2="100%">
  <stop offset="0%" stop-color="transparent" />
  <stop offset="20%" stop-color="transparent" />
  <stop offset="30%" stop-color="#009DBC" stop-opacity="0.4" />
  <stop offset="40%" stop-color="#009DBC" stop-opacity="0.8" />
  <stop offset="50%" stop-color="#67e8f9" stop-opacity="1" />
  <stop offset="60%" stop-color="#009DBC" stop-opacity="0.8" />
  <stop offset="70%" stop-color="#009DBC" stop-opacity="0.4" />
  <stop offset="80%" stop-color="transparent" />
  <stop offset="100%" stop-color="transparent" />
</linearGradient>
<filter id="filter0_f_115_445" x="-15.3732" y="-15.3726" width="852.594" height="778.687" filterUnits="userSpaceOnUse" color-interpolation-filters="sRGB">
<feFlood flood-opacity="0" result="BackgroundImageFix"/>
<feBlend mode="normal" in="SourceGraphic" in2="BackgroundImageFix" result="shape"/>
<feGaussianBlur stdDeviation="10.6426" result="effect1_foregroundBlur_115_445"/>
</filter>
<filter id="filter1_d_115_445" x="432.196" y="358.938" width="52.4762" height="51.1708" filterUnits="userSpaceOnUse" color-interpolation-filters="sRGB">
<feFlood flood-opacity="0" result="BackgroundImageFix"/>
<feColorMatrix in="SourceAlpha" type="matrix" values="0 0 0 0 0 0 0 0 0 0 0 0 0 0 0 0 0 0 127 0" result="hardAlpha"/>
<feOffset dy="8.7879"/>
<feGaussianBlur stdDeviation="4.39395"/>
<feComposite in2="hardAlpha" operator="out"/>
<feColorMatrix type="matrix" values="0 0 0 0 0.0509804 0 0 0 0 0.0392157 0 0 0 0 0.172549 0 0 0 0.08 0"/>
<feBlend mode="normal" in2="BackgroundImageFix" result="effect1_dropShadow_115_445"/>
<feBlend mode="normal" in="SourceGraphic" in2="effect1_dropShadow_115_445" result="shape"/>
</filter>
<filter id="filter2_f_115_445" x="413.699" y="331.653" width="89.4715" height="88.1659" filterUnits="userSpaceOnUse" color-interpolation-filters="sRGB">
<feFlood flood-opacity="0" result="BackgroundImageFix"/>
<feBlend mode="normal" in="SourceGraphic" in2="BackgroundImageFix" result="shape"/>
<feGaussianBlur stdDeviation="16.8527" result="effect1_foregroundBlur_115_445"/>
</filter>
<filter id="filter3_d_115_445" x="425.777" y="352.518" width="65.316" height="64.0111" filterUnits="userSpaceOnUse" color-interpolation-filters="sRGB">
<feFlood flood-opacity="0" result="BackgroundImageFix"/>
<feColorMatrix in="SourceAlpha" type="matrix" values="0 0 0 0 0 0 0 0 0 0 0 0 0 0 0 0 0 0 127 0" result="hardAlpha"/>
<feOffset dy="8.7879"/>
<feGaussianBlur stdDeviation="4.39395"/>
<feComposite in2="hardAlpha" operator="out"/>
<feColorMatrix type="matrix" values="0 0 0 0 0.0509804 0 0 0 0 0.0392157 0 0 0 0 0.172549 0 0 0 0.08 0"/>
<feBlend mode="normal" in2="BackgroundImageFix" result="effect1_dropShadow_115_445"/>
<feBlend mode="normal" in="SourceGraphic" in2="effect1_dropShadow_115_445" result="shape"/>
</filter>
<radialGradient id="paint0_radial_115_445" cx="0" cy="0" r="1" gradientTransform="matrix(-175.419 -316.753 348.555 -577.32 823.675 757.643)" gradientUnits="userSpaceOnUse">
<stop stop-color="#009DBC"/>
<stop offset="1" stop-color="#999999" stop-opacity="0"/>
</radialGradient>
<radialGradient id="paint1_radial_115_445" cx="0" cy="0" r="1" gradientTransform="matrix(711.217 169.648 173.003 837.795 -128.915 426.258)" gradientUnits="userSpaceOnUse">
<stop stop-color="#009DBC" stop-opacity="0.61"/>
<stop offset="1" stop-opacity="0"/>
</radialGradient>
<linearGradient id="paint2_linear_115_445" x1="674" y1="635.29" x2="674" y2="884.456" gradientUnits="userSpaceOnUse">
<stop stop-color="#0F0F0F" stop-opacity="0"/>
<stop offset="1" stop-color="#009DBC"/>
</linearGradient>
<linearGradient id="paint3_linear_115_445" x1="335.041" y1="413.844" x2="335.041" y2="904.464" gradientUnits="userSpaceOnUse">
<stop stop-color="#0F0F0F" stop-opacity="0"/>
<stop offset="1" stop-color="#009DBC"/>
</linearGradient>
<linearGradient id="paint4_linear_115_445" x1="457.227" y1="375.736" x2="457.227" y2="607.397" gradientUnits="userSpaceOnUse">
<stop stop-color="#009DBC"/>
<stop offset="1" stop-color="#046C80" stop-opacity="0"/>
</linearGradient>
<radialGradient id="paint5_radial_115_445" cx="0" cy="0" r="1" gradientTransform="matrix(358.871 -328.821 864.105 274.132 -11.4667 742.029)" gradientUnits="userSpaceOnUse">
<stop stop-color="#009DBC"/>
<stop offset="1" stop-color="#999999" stop-opacity="0"/>
</radialGradient>
<clipPath id="clip0_115_445">
<rect width="821.849" height="747.941" fill="white"/>
</clipPath>
<clipPath id="clip1_115_445">
<rect x="5.91211" y="5.91272" width="810.023" height="736.116" rx="23" fill="white"/>
</clipPath>
</defs>

<script type="text/javascript">
<![CDATA[
(function() {
  var gradient = document.getElementById('shinyBorderGradient');
  var angle = 0;
  
  function animate() {
    angle = (angle + 1) % 360;
    gradient.setAttribute('gradientTransform', 'rotate(' + angle + ' 0.5 0.5)');
    requestAnimationFrame(animate);
  }
  
  animate();
})();
]]>
</script>

</svg>
